<?xml version="1.0" encoding="UTF-8"?>
<svg xmlns="http://www.w3.org/2000/svg" viewBox="0 0 130.72 122.24">
  <defs>
    <style>
      .cls-1 {
        fill: #f1f2f5;
      }

      .cls-2 {
        fill: #3e4974;
      }

      .cls-3 {
        fill: #fefefe;
      }

      .cls-4 {
        fill: #4a5681;
      }

      .cls-5 {
        fill: #434e79;
      }
    </style>
  </defs>
  <g id="Layer_1" data-name="Layer 1">
    <g>
      <path class="cls-3" d="M105.69,111.88c-6.32,8.34-19.64,10.99-28.72,8.49-5.02-1.38-11.02-2.35-15.65-5.08-24.37-14.36-28.53-8.38-49.26-16.26-5.14-1.95-13.46-10.7-11.86-15.37.24-.71,1.84-2.13,2.51-1.6,6.5,5.15,14.98.22,17.3-3.79,1.63-2.81,3.48-5.67,4.46-8.95,3.29-11.01,4.3-22.09,5.48-33.58.74-7.2,1.4-14.55,5.71-20.59C45.84.87,63.97-3.71,79.99,3.1c5.98,2.54,10.27,7.24,14.61,12.34,4.86,5.72,5.14,13.63,5.83,21.02.99,10.53,1.8,20.67,4.54,30.74,1.76,6.47,5,12.14,10.3,15.89,7.91,5.6,11.31-2.13,14.5,0,.66.44,1.38,2.6.63,3.53-2.94,3.63-8.35,4.54-12.76,3.23-5.14-1.52-11.08,1.92-12.84,6.52-1.69,4.42,6.61,7.95.89,15.5ZM34.03,51.9c-.98,4.75-.83,10.1-2.59,15.26s-3.94,11.41-7.72,16.41c-.62.82-1.35,1.54-2.15,2.17-4.55,3.57-2.95,10.88,2.73,11.84.06.01.13.02.19.03,3.74.63,7.5,1.73,11.71,2.19,4.11.46,7.9,2.2,12.42,3.31.68.17,1.33.43,1.93.8,5.43,3.39,11.16,6.63,17.71,8.73,4.13,1.32,8.05,3.54,13.09,3.26-2.62.14,3.65,1.22,9.14-.26,3.43-.92,13.72-4.04,11.33-10.27-1.62-4.21-2.72-8.97-.72-13.65.18-.41.39-.81.67-1.16.43-.55.97-1.05,1.56-1.52,2.69-2.12,3.19-6.06,1.28-8.92-1.68-2.53-3.13-5.15-3.37-5.82l-2.1-5.86c-1.71-4.77-2.31-9.99-2.78-15.06.13,1.36-2.57-22.97-2.63-18.6.07-5.41-1.52-8.7-3.51-13.18-1.64-3.68-3.23-6.15-6.46-8.91-12.44-10.61-31.94-8.8-42.77,5.45-6.29,8.28-4.5,23.5-6.94,33.73Z"/>
      <g>
        <path class="cls-4" d="M83.74,12.72c-.5,1.36.67,2.05,1.73,2.9,2.13,1.73,2.44,4.88,4.74,6.01,1.99,4.47,3.59,7.76,3.51,13.18.06-4.37,2.76,19.95,2.63,18.6-1.25-1-.64,7.37-.46,8,.65,2.22,1.62,4.16,1.34,6.32-1.03-.37-2.12-.59-3.11-1.07-.27-.95-.98-1.71-1.95-1.9-.05-.31-.26-.6-.34-.9-1.13-4.39-2.32-3.31-5.57-8.32-.73,3.52-.15,6.94,1.81,9.14l.22,1.4c.1.62-.17,1.2-.12,1.99.03.59.41,1.76,1.43,1.28-.33,1.65,2.56,10.16,5.22,12.78,2.92,2.89,4.13,8.28,6.58,8.98-2.38,4.88-1.25,9.87.44,14.26-.32.36-.65.78-.77,1.12-13.86-9.71-18.1-31.67-22.53-47.1l-2.01-7c5.71-.33,7.84-9.33,5.07-15.81-.84-1.96-2.57-2.99-4.28-3.2-1.83-.23-3.71.78-4.83,2.54-3.14,4.93,10.53,20.18,13.46,25.23-.71.32-21.15,47.08-14.05-8.03.08-.65.39,1.2.43,2,.52,10.46,20.38,20.45,26.5,28.28,1.37,1.75-12.8,25.53-11.29,27.17s3.26,2.91,2.95,5.07c-5.49,1.48-11.76.4-9.14.26.08-1.53-.86-2.65-1.87-3.98-3.48-4.57-5.21-10.05-7.94-15.07l-2.64-4.86-3.18-4.9c.84,1.3-5.92-12.62-5.51-9.71-.24-4.76-5.69-17.04-7.74-13.15s-2.53,8.26-3.77,12.5c-.74,2.51-1.94,4.61-2.78,6.77-.56-.19-1.29-.12-1.43.47-.11.46.04.88.07,1.22.05.64.06,1.28.08,1.92-3.24,5.86-5.71,4.75-8.31,11.02.43.47,1.94.84,1.05,1.16-.4.15-.93.14-1.18.5-4.21-.47-7.97-1.57-11.71-2.19.08-.45.1-.92.06-1.38,2.23.05,3.35-1.63,4.65-3.38,5.44-7.27,8.61-15.47,9.18-24.28.27-4.22,5.52-19.21-.5-21.09l-2.27,5.56-1.59-1.16c2.44-10.23.65-25.45,6.94-33.73,10.82-14.24,30.33-16.06,42.77-5.45ZM57.43,35.72c-1.02-1.46-2.93-2.42-4.28-2.2-5.58.92-7.48,10.05-3.61,16.25,1.12,1.8,2.94,2.34,4.85,2.13,4.57-.51,7.11-10.33,3.04-16.17Z"/>
        <path class="cls-2" d="M74.5,64.77c.29-.75.52-3.81,1.23-4.13.9-.04.15.26,1.28-.52l1.42-.78c4.42,15.43,8.67,37.39,22.53,47.1.12-.34.44-.76.77-1.12,2.39,6.23-7.9,9.34-11.33,10.27.31-2.16-1.47-3.47-2.95-5.07s-1.91-4.01-3.28-5.76"/>
        <path class="cls-2" d="M60.22,77.4c.3,6.07-.2,8.44,1.69,15.4l1.43,5.25c.64,2.36-.8,4.72-.35,7.09,2.23.44,3.86,1.3,4.9,3.04.8,1.34,1.44,2.94.38,4.49-6.91-2.21-12.9-5.7-18.6-9.29l1.98-6.44-6.08-9.37c-.37-.51-.46-1.06-.92-.43-.02-.64-.03-1.28-.08-1.92.6.5.94-.2,1.15-.64.16-.34.09-.73.21-1.05.85-2.16,2.05-4.26,2.78-6.77,1.24-4.23,1.72-8.61,3.77-12.5s7.5,8.39,7.74,13.15Z"/>
        <path class="cls-5" d="M81.41,116.14c-5.04.28-9.02-2.17-13.15-3.48,1.06-1.55.43-3.15-.38-4.49-1.04-1.74-2.67-2.6-4.9-3.04-.46-2.37.99-4.72.35-7.09l-1.43-5.25c-1.89-6.96-1.39-9.33-1.69-15.4-.41-2.91,6.35,11.01,5.51,9.71l3.18,4.9,2.64,4.86c2.73,5.02,4.45,10.5,7.94,15.07,1.01,1.33,2.01,2.67,1.93,4.2Z"/>
        <path class="cls-2" d="M91.83,63.87c.08.3.29.59.34.9.1.58.09,1.31.56,1.69.41.34,1.03.03,1.4.21,1,.48,2.08.7,3.11,1.07.62.22,1.16.8,1.9.73l2.1,5.86c.5,1.38,6.08,10.98,8.35,11.09-2.41,1.39-6.51,3.03-8.21,5.71-2.45-.7-3.66-6.1-6.58-8.98-2.66-2.63-5.55-11.14-5.22-12.78.12-.58.11-1.2.12-1.98,0-.58-.39-1.8-1.43-1.3l-.22-1.4c1.25-.29,2.48-.73,3.76-.82Z"/>
        <path class="cls-2" d="M38.39,68.59c-.57,8.81-3.74,17.01-9.18,24.28-1.31,1.75-2.42,3.43-4.65,3.38-4.14-1.95,1.7-10.31-.83-12.67,3.78-5,5.88-11.02,7.72-16.41.89.47,1.63,1.14,2.73,1.95,1.3-1.5,2.88-1.44,4.22-.52ZM26.61,83.92c0-.21-.17-.38-.37-.38s-.37.17-.37.38.17.38.37.38.37-.17.37-.38Z"/>
        <path class="cls-5" d="M49.66,103.37c-4.98-1.08-9.03-3.06-13.45-3.55.24-.37.77-.35,1.18-.5.88-.33-.62-.7-1.05-1.16,2.61-6.27,5.07-5.16,8.31-11.02.45-.62.55-.08.92.43l6.08,9.37-1.98,6.44Z"/>
        <path class="cls-5" d="M38.39,68.59c-1.34-.92-2.92-.98-4.22.52-1.1-.81-1.84-1.47-2.73-1.95,1.76-5.16,1.61-10.51,2.59-15.26l1.59,1.16,2.27-5.56c6.02,1.88.77,16.87.5,21.09Z"/>
        <path class="cls-5" d="M24.56,96.25c.03.46.01.92-.06,1.38-6.39-1.07-12.86-2.64-17.06-7.73,5.62-.21,12.7-1.57,16.29-6.32,2.53,2.36-3.31,10.72.83,12.67Z"/>
        <path class="cls-5" d="M99.14,68.46c-.74.08-1.28-.51-1.9-.73.29-2.17-.69-4.1-1.34-6.32-.19-.64-.8-9,.46-8,.47,5.06,1.07,10.28,2.78,15.06Z"/>
        <path class="cls-5" d="M90.2,21.63c-2.29-1.12-2.6-4.28-4.74-6.01-1.06-.86-2.23-1.54-1.73-2.9,3.23,2.76,4.82,5.23,6.46,8.91Z"/>
        <path class="cls-1" d="M75.26,51.86s-.02,0-.03-.01c-1.34-.46-2.44-1.44-3.02-2.75-1.93-4.37-2.36-9.01.27-13.15,1.12-1.76,3-2.77,4.83-2.54,1.7.21,3.44,1.25,4.28,3.2,2.09,4.9,1.38,11.24-1.55,14.18-1.24,1.25-3.13,1.64-4.78,1.06Z"/>
        <path class="cls-1" d="M57.43,35.72c4.07,5.84,1.53,15.66-3.04,16.17-1.91.21-3.73-.33-4.85-2.13-3.86-6.2-1.97-15.33,3.61-16.25,1.34-.22,3.26.74,4.28,2.2Z"/>
        <path class="cls-5" d="M91.83,63.87c-1.29.1-2.51.53-3.76.82-1.96-2.2-2.54-5.62-1.81-9.14,3.25,5.01,4.44,3.93,5.57,8.32Z"/>
        <path class="cls-5" d="M89.59,69.36c-1.02.49-1.4-.69-1.43-1.28-.04-.79.22-1.38.12-1.99,1.03-.51,1.43.71,1.43,1.3,0,.78,0,1.4-.12,1.98Z"/>
        <path class="cls-5" d="M94.12,66.66c-.37-.18-.98.13-1.4-.21-.47-.38-.46-1.11-.56-1.69.97.19,1.68.95,1.95,1.9Z"/>
        <path class="cls-5" d="M45.93,83.52c-.12.32-.05.71-.21,1.05-.21.44-.56,1.15-1.15.64-.03-.34-.18-.76-.07-1.22.14-.59.87-.66,1.43-.47Z"/>
        <ellipse class="cls-5" cx="26.24" cy="83.92" rx=".37" ry=".38"/>
      </g>
    </g>
  </g>
  <g id="Layer_2" data-name="Layer 2">
    <ellipse class="cls-1" cx="7.44" cy="108.17" rx="1.71" ry=".89"/>
    <ellipse class="cls-1" cx="23.02" cy="116.43" rx="2.29" ry="2.32"/>
    <ellipse class="cls-1" cx="16.01" cy="110.9" rx="2.71" ry="1.5"/>
    <ellipse class="cls-1" cx="36.21" cy="111.81" rx="3.06" ry="2.74"/>
    <ellipse class="cls-1" cx="34.35" cy="120.03" rx="3.14" ry="2.21"/>
    <ellipse class="cls-1" cx="50.43" cy="117.83" rx="1.21" ry="1.22"/>
    <ellipse class="cls-1" cx="23.88" cy="108.17" rx="3.14" ry="2.21"/>
    <ellipse class="cls-1" cx="43.92" cy="116.43" rx="2.71" ry="1.5"/>
  </g>
</svg>